# This file uses centimeters as units for non-parametric coordinates.

mtllib Rocks1SEPERATED.mtl
g default
v -5.414165 0.013455 0.500000
v -4.060453 0.013455 0.500000
v -5.414165 0.484765 0.500000
v -4.060453 0.484765 0.500000
v -5.060453 0.484765 -0.500000
v -4.531726 0.484765 -0.310754
v -5.060453 0.013455 -0.500000
v -4.531726 0.013455 -0.310754
v -5.060453 0.013455 0.982414
v -4.060453 0.013455 0.982414
v -4.060453 0.484765 0.982414
v -5.060453 0.484765 0.982414
v -4.673241 0.793690 0.500000
v -4.771066 0.524711 -0.396420
v -4.771066 0.020137 -0.396421
v -4.673241 0.013455 0.500000
v -4.513125 0.013455 0.982414
v -4.513125 0.524711 0.982414
v -4.513125 0.234188 0.982414
v -5.060453 0.216942 0.982414
v -5.414165 0.216942 0.500000
v -5.060453 0.216942 -0.500000
v -4.771066 0.239287 -0.396420
v -4.531726 0.216942 -0.310754
v -4.060453 0.216942 0.500000
v -4.060453 0.216942 0.982414
vt 0.086894 0.061649
vt 0.032558 0.061363
vt 0.032673 0.039450
vt 0.087000 0.041448
vt 0.012771 0.831584
vt 0.118847 0.828907
vt 0.108895 0.953356
vt 0.069697 0.969062
vt 0.251690 0.042315
vt 0.282216 0.040257
vt 0.282102 0.062014
vt 0.251584 0.062516
vt 0.141366 0.374413
vt 0.136200 0.402106
vt 0.056514 0.423964
vt 0.045758 0.356929
vt 0.401124 0.018833
vt 0.494196 0.016530
vt 0.494695 0.036726
vt 0.401624 0.039028
vt 0.146281 0.061962
vt 0.146387 0.041761
vt 0.015189 0.445450
vt 0.007246 0.395932
vt 0.353746 0.040213
vt 0.353246 0.020017
vt 0.141848 0.758328
vt 0.061886 0.759982
vt 0.208854 0.825186
vt 0.144001 0.942337
vt 0.519442 0.016569
vt 0.519980 0.038319
vt 0.131920 0.425010
vt 0.065402 0.479407
vt 0.021756 0.486406
vt 0.308862 0.043036
vt 0.308320 0.021129
vt 0.205129 0.757923
vt 0.032825 0.010608
vt 0.087141 0.014859
vt 0.146527 0.015172
vt 0.251830 0.015726
vt 0.282365 0.011921
vt 0.520681 0.066646
vt 0.495353 0.063306
vt 0.402282 0.065609
vt 0.354403 0.066794
vt 0.309575 0.071870
vn -0.202496 -0.899160 0.387953
vn 0.000000 -0.934483 0.356007
vn 0.000000 -0.000000 1.000000
vn -0.463336 0.000000 0.886183
vn -0.697388 0.716597 0.011817
vn -0.012574 0.999910 -0.004651
vn -0.041999 0.938168 -0.343623
vn -0.573373 0.717209 -0.396049
vn -0.808008 0.000000 -0.589172
vn 0.336991 0.000000 -0.941508
vn 0.047940 -0.990515 -0.128772
vn -0.329506 -0.911414 -0.246477
vn 0.000151 -0.999999 -0.001208
vn -0.462328 -0.886708 -0.001567
vn 0.463216 -0.869684 -0.170531
vn 0.301160 -0.921071 -0.246844
vn 0.781639 0.000000 -0.623731
vn 0.939553 -0.000000 -0.342404
vn -1.000000 0.000000 -0.000000
vn 0.716045 -0.000000 0.698054
vn 0.336897 -0.881995 0.329522
vn 0.042095 0.788324 0.613819
vn -0.371179 0.654084 0.659091
vn 0.716923 0.670438 -0.191141
vn 0.593461 0.668447 -0.448312
vn 0.554395 0.667807 0.496669
s 1
g polySurface1 pCube5
usemtl set3
f 9/1/1 17/2/2 19/3/3 20/4/4
f 3/5/5 13/6/6 14/7/7 5/8/8
f 22/9/9 23/10/10 15/11/11 7/12/12
f 7/13/12 15/14/11 16/15/13 1/16/14
f 2/17/15 8/18/16 24/19/17 25/20/18
f 7/12/12 1/21/14 21/22/19 22/9/9
f 1/16/14 16/15/13 17/23/2 9/24/1
f 2/17/15 25/20/18 26/25/20 10/26/21
f 18/27/22 13/6/6 3/5/5 12/28/23
f 21/22/19 1/21/14 9/1/1 20/4/4
f 13/6/6 4/29/24 6/30/25 14/7/7
f 15/31/11 23/32/10 24/19/17 8/18/16
f 16/15/13 15/14/11 8/33/16 2/34/15
f 17/23/2 16/15/13 2/34/15 10/35/21
f 26/25/20 19/36/3 17/37/2 10/26/21
f 4/29/24 13/6/6 18/27/22 11/38/26
f 20/4/4 19/3/3 18/39/22 12/40/23
f 3/41/5 21/22/19 20/4/4 12/40/23
f 22/9/9 21/22/19 3/41/5 5/42/8
f 5/42/8 14/43/7 23/10/10 22/9/9
f 24/19/17 23/32/10 14/44/7 6/45/25
f 25/20/18 24/19/17 6/45/25 4/46/24
f 26/25/20 25/20/18 4/46/24 11/47/26
f 18/48/22 19/36/3 26/25/20 11/47/26
g default
v 4.325111 0.009818 0.015692
v 9.908371 0.009818 0.015692
v 5.320948 5.273656 -0.980145
v 8.912535 5.273656 -0.980145
v 5.320948 5.273656 -2.641528
v 6.982332 5.273656 -2.641528
v 4.325111 0.009818 -3.637365
v 7.978168 0.009818 -3.637365
v 5.184267 0.009818 2.150472
v 8.837324 0.009818 2.150472
v 9.034861 2.078783 1.154635
v 6.180103 4.043572 1.154635
v 3.344833 0.009818 -3.637365
v 2.565680 0.009818 0.015692
v 3.561517 5.273656 -0.980145
v 4.340670 5.273656 -2.641528
v 4.203989 0.009818 2.150472
v 5.199825 4.043572 1.154635
v 4.753156 2.234287 1.601304
v 3.114848 2.912633 -0.533476
v 3.894001 2.912633 -3.088197
v 4.874279 2.912633 -3.088197
v 7.429001 2.912633 -3.088197
v 9.359204 2.912633 -0.533476
v 8.946259 1.150777 1.601304
v 5.733434 2.234287 1.601304
vt 0.587901 0.631375
vt 0.688437 0.583640
vt 0.708638 0.616696
vt 0.633009 0.687279
vt 0.559184 0.813990
vt 0.551373 0.959682
vt 0.488177 0.877770
vt 0.491791 0.810377
vt 0.952379 0.691387
vt 0.877078 0.670820
vt 0.885543 0.579661
vt 0.992539 0.609308
vt 0.337522 0.507865
vt 0.432518 0.442454
vt 0.548123 0.502887
vt 0.402934 0.602861
vt 0.760271 0.575299
vt 0.779229 0.665051
vt 0.732895 0.775188
vt 0.859641 0.769572
vt 0.842023 0.870220
vt 0.751307 0.875651
vt 0.558496 0.577579
vt 0.463501 0.642990
vt 0.657260 0.854200
vt 0.705214 0.986562
vt 0.950216 0.781937
vt 0.935968 0.860763
vt 0.357181 0.634365
vt 0.312031 0.525418
vt 0.493922 0.770612
vt 0.563011 0.742619
vt 0.720128 0.887450
vt 0.701779 0.787050
vt 0.438010 0.660543
vt 0.980716 0.795323
vt 0.966508 0.874116
vt 0.659392 0.814435
vt 0.827867 0.952093
vt 0.924576 0.924879
vt 0.765784 0.957503
vt 0.734595 0.969229
vt 0.920322 0.758434
vt 0.871476 0.745196
vt 0.794437 0.737995
vt 0.724874 0.643779
vt 0.668906 0.733369
vt 0.955113 0.938215
vn 0.017563 -0.850546 0.525608
vn 0.236707 -0.781533 0.577215
vn 0.487910 0.294368 0.821761
vn 0.066692 0.278930 0.957993
vn 0.095382 0.902183 0.420675
vn 0.639038 0.759261 0.123097
vn 0.346163 0.615058 -0.708432
vn 0.000000 0.728179 -0.685388
vn 0.000000 0.185887 -0.982571
vn 0.487320 0.186877 -0.852993
vn 0.347185 -0.768048 -0.538113
vn 0.000000 -0.871298 -0.490755
vn 0.575554 -0.804753 -0.145295
vn 0.000000 -1.000000 -0.000000
vn 0.907693 0.174547 -0.381611
vn -0.814204 -0.362068 -0.453848
vn -0.965858 -0.180347 0.185994
vn -0.952444 0.259457 0.159787
vn -0.817916 0.211246 -0.535153
vn 0.164966 0.638186 0.752001
vn 0.446137 0.471198 0.760877
vn -0.629657 -0.204495 0.749475
vn -0.584147 0.295133 0.756088
vn -0.640018 0.535139 -0.551365
vn -0.820948 0.548283 0.159469
vn -0.411646 0.532356 0.739693
s 1
g pCube5 polySurface3
usemtl set3
f 35/49/27 36/50/28 51/51/29 52/52/30
f 29/53/31 30/54/32 32/55/33 31/56/34
f 48/57/35 49/58/36 34/59/37 33/60/38
f 33/61/38 34/62/37 28/63/39 27/64/40
f 28/65/39 34/59/37 49/58/36 50/66/41
f 39/67/42 40/68/43 46/69/44 47/70/45
f 27/64/40 28/63/39 36/71/28 35/72/27
f 28/65/39 50/66/41 51/51/29 36/50/28
f 30/54/32 29/53/31 38/73/46 37/74/47
f 46/69/44 40/68/43 43/75/48 45/76/49
f 33/61/38 27/64/40 40/77/43 39/78/42
f 29/53/31 31/56/34 42/79/50 41/80/51
f 48/81/35 33/82/38 39/67/42 47/70/45
f 27/64/40 35/72/27 43/83/48 40/77/43
f 35/84/27 52/85/30 45/76/49 43/75/48
f 38/73/46 29/53/31 41/80/51 44/86/52
f 41/87/51 46/69/44 45/76/49 44/88/52
f 47/70/45 46/69/44 41/87/51 42/89/50
f 31/90/34 48/81/35 47/70/45 42/89/50
f 31/91/34 32/92/33 49/58/36 48/57/35
f 50/66/41 49/58/36 32/92/33 30/93/32
f 51/51/29 50/66/41 30/93/32 37/94/47
f 52/52/30 51/51/29 37/94/47 38/95/46
f 45/76/49 52/85/30 38/96/46 44/88/52
g default
v -2.482475 0.010460 1.694931
v -2.311849 0.010460 1.694931
v -2.482475 0.198568 1.694931
v -2.311849 0.198568 1.694931
v -2.482475 0.198568 1.195532
v -2.311849 0.198568 1.195532
v -2.482475 0.010460 1.195532
v -2.311849 0.010460 1.195532
v -2.575202 0.233532 1.504609
v -2.219122 0.233532 1.504609
v -2.276885 0.233532 1.264054
v -2.517439 0.233532 1.264054
v -2.276885 0.010460 1.264054
v -2.219122 0.010460 1.504609
v -2.517439 0.010460 1.264054
v -2.575202 0.010460 1.504609
v -2.482475 0.108306 1.694931
v -2.575202 0.106278 1.504609
v -2.517439 0.106278 1.264054
v -2.482475 0.108306 1.195532
v -2.311849 0.108306 1.195532
v -2.276885 0.106278 1.264054
v -2.219122 0.106278 1.504609
v -2.311849 0.108306 1.694931
v -2.392479 0.198568 1.694931
v -2.387390 0.233532 1.504609
v -2.390561 0.233532 1.264054
v -2.392479 0.198568 1.195532
v -2.392479 0.108306 1.195532
v -2.392479 0.010460 1.195532
v -2.392479 0.010460 1.694931
v -2.392479 0.108306 1.694931
vt 0.251548 0.090439
vt 0.277548 0.090376
vt 0.277617 0.118644
vt 0.251617 0.118707
vt 0.027297 0.642079
vt 0.087906 0.640580
vt 0.088802 0.718236
vt 0.047857 0.719248
vt 0.096757 0.119082
vt 0.070758 0.119145
vt 0.070689 0.090877
vt 0.096689 0.090814
vt 0.092986 0.325003
vt 0.078786 0.298279
vt 0.227083 0.219481
vt 0.241282 0.246205
vt 0.382284 0.093713
vt 0.453753 0.094419
vt 0.453479 0.122100
vt 0.382010 0.121393
vt 0.118913 0.090760
vt 0.190385 0.090587
vt 0.190452 0.118269
vt 0.118980 0.118442
vt 0.055676 0.578891
vt 0.084720 0.578173
vt 0.088797 0.743077
vt 0.059754 0.743795
vt 0.214360 0.195538
vt 0.066064 0.274335
vt 0.080894 0.253141
vt 0.143213 0.198033
vt 0.475976 0.094639
vt 0.475697 0.122906
vt 0.320844 0.121375
vt 0.321124 0.093108
vt 0.199397 0.303770
vt 0.118851 0.324573
vt 0.251680 0.144784
vt 0.190541 0.155033
vt 0.119069 0.155206
vt 0.096820 0.145159
vt 0.070821 0.145221
vt 0.475439 0.148981
vt 0.453116 0.158862
vt 0.381647 0.158156
vt 0.320587 0.147450
vt 0.277680 0.144721
vt 0.110740 0.577530
vt 0.142208 0.639237
vt 0.125487 0.717329
vt 0.114818 0.742434
vt 0.498990 0.123136
vt 0.498732 0.149211
vt 0.499269 0.094869
vt 0.297551 0.121145
vt 0.297831 0.092878
vt 0.297294 0.147220
vn -0.316620 -0.897994 0.305546
vn 0.000000 -0.981342 0.192272
vn 0.000000 0.000000 1.000000
vn -0.736037 0.000000 0.676941
vn -0.691511 0.718711 0.072571
vn 0.000000 0.997160 0.075313
vn 0.000000 0.996521 -0.083348
vn -0.580082 0.787727 -0.207345
vn -0.504640 0.000000 -0.863330
vn 0.000000 0.000000 -1.000000
vn 0.000000 -0.981342 -0.192272
vn -0.122040 -0.966863 -0.224236
vn 0.721758 -0.689546 0.059932
vn 0.527685 -0.834508 -0.158572
vn 0.958810 0.000000 -0.284048
vn 0.997795 0.000000 0.066377
vn -0.527686 -0.834508 -0.158573
vn -0.721758 -0.689546 0.059933
vn -0.997795 0.000000 0.066377
vn -0.958810 0.000000 -0.284048
vn -0.473950 0.704149 0.528721
vn 0.000000 0.897741 0.440524
vn 0.000000 0.529393 -0.848377
vn -0.425848 0.424590 -0.798985
vn 0.342862 -0.885415 0.313823
vn 0.133652 -0.964654 -0.227113
vn 0.533386 0.000000 -0.845872
vn 0.752687 0.000000 0.658379
vn 0.456198 0.407519 -0.791083
vn 0.619891 0.754192 -0.216632
vn 0.729981 0.679745 0.071238
vn 0.508019 0.676227 0.533511
s 1
g pCube5 polySurface2
usemtl set3
f 53/97/53 83/98/54 84/99/55 69/100/56
f 61/101/57 78/102/58 79/103/59 64/104/60
f 72/105/61 81/106/62 82/107/63 59/108/64
f 59/109/64 82/110/63 83/111/54 53/112/53
f 66/113/65 65/114/66 74/115/67 75/116/68
f 67/117/69 68/118/70 70/119/71 71/120/72
f 55/121/73 77/122/74 78/102/58 61/101/57
f 80/123/75 57/124/76 64/104/60 79/103/59
f 54/125/77 60/126/78 65/127/66 66/128/65
f 60/129/78 73/130/79 74/115/67 65/114/66
f 76/131/80 54/132/77 66/113/65 75/116/68
f 59/109/64 53/112/53 68/133/70 67/134/69
f 53/97/53 69/100/56 70/119/71 68/118/70
f 72/105/61 59/108/64 67/117/69 71/120/72
f 69/100/56 55/135/73 61/136/57 70/119/71
f 71/120/72 70/119/71 61/136/57 64/137/60
f 57/138/76 72/105/61 71/120/72 64/137/60
f 57/138/76 80/139/75 81/106/62 72/105/61
f 74/115/67 73/130/79 58/140/81 63/141/82
f 75/116/68 74/115/67 63/141/82 62/142/83
f 56/143/84 76/131/80 75/116/68 62/142/83
f 69/100/56 84/99/55 77/144/74 55/135/73
f 77/122/74 56/145/84 62/146/83 78/102/58
f 79/103/59 78/102/58 62/146/83 63/147/82
f 58/148/81 80/123/75 79/103/59 63/147/82
f 81/149/62 80/150/75 58/140/81 73/130/79
f 82/151/63 81/149/62 73/130/79 60/129/78
f 83/111/54 82/110/63 60/126/78 54/125/77
f 84/152/55 83/153/54 54/132/77 76/131/80
f 77/154/74 84/152/55 76/131/80 56/143/84
g default
v -3.218888 0.000909 -4.154648
v 2.364372 0.000909 -4.154648
v -2.047160 9.173746 -5.309983
v 0.854823 9.173746 -5.309983
v -2.047160 9.173746 -6.652371
v -0.704770 9.173746 -6.652371
v -3.218888 0.000909 -7.807706
v 0.434169 0.000909 -7.807706
v -2.359732 0.000909 -2.019868
v 1.293325 0.000909 -2.019868
v -0.025543 8.440803 -3.450699
v -1.604091 8.173480 -3.450699
v -4.012010 0.000909 -7.346245
v -4.978319 0.000909 -4.154648
v -3.468768 9.173746 -5.309983
v -2.652061 9.173746 -6.190910
v -3.340010 0.000909 -2.019868
v -2.146139 8.122353 -3.450699
v 0.625969 4.271550 -2.743878
v -1.977373 4.136283 -2.743878
v -2.735904 4.110412 -2.743878
v -4.214477 4.642425 -4.739255
v -3.323866 4.642425 -6.761638
v -2.625986 4.642425 -7.223099
v -0.142141 4.642425 -7.223099
v 1.600530 4.642425 -4.739255
vt 0.835909 0.498289
vt 0.765530 0.513504
vt 0.760253 0.427224
vt 0.811031 0.418998
vt 0.289675 0.898707
vt 0.474394 0.897590
vt 0.375753 0.983563
vt 0.290408 0.984191
vt 0.611166 0.392576
vt 0.657577 0.408355
vt 0.638214 0.499317
vt 0.570093 0.475953
vt 0.333577 0.222261
vt 0.426900 0.183160
vt 0.515311 0.255823
vt 0.372679 0.315584
vt 0.718481 0.512608
vt 0.716546 0.419077
vt 0.964356 0.434130
vt 0.909001 0.469529
vt 0.872246 0.383530
vt 0.908564 0.359364
vt 0.510800 0.321823
vt 0.417477 0.360924
vt 0.316130 0.763947
vt 0.417700 0.770835
vt 0.860252 0.490432
vt 0.831326 0.412487
vt 0.327731 0.334416
vt 0.318255 0.242539
vt 0.251710 0.955183
vt 0.199207 0.899770
vt 0.921314 0.348880
vt 0.978145 0.422429
vt 0.392434 0.371416
vt 0.841358 0.494504
vt 0.816597 0.415171
vt 0.281532 0.762833
vt 0.755428 0.343030
vt 0.786955 0.341588
vt 0.792169 0.337868
vt 0.802826 0.336557
vt 0.835952 0.299776
vt 0.854973 0.285686
vt 0.866726 0.276359
vt 0.650525 0.310914
vt 0.675596 0.319315
vt 0.715213 0.327808
vn -0.002809 -0.585027 0.811009
vn 0.420617 -0.426365 0.800808
vn 0.468816 0.217039 0.856216
vn -0.007695 0.170394 0.985346
vn -0.027023 0.958664 0.283255
vn 0.888247 0.409315 -0.208515
vn 0.429172 0.340576 -0.836552
vn -0.152266 0.390805 -0.907792
vn -0.139345 0.142651 -0.979915
vn 0.500076 0.136065 -0.855226
vn 0.438266 -0.587401 -0.680355
vn -0.091433 -0.717176 -0.690868
vn 0.827594 -0.551845 -0.102742
vn 0.000000 -1.000000 -0.000000
vn 0.969407 0.178365 -0.168630
vn -0.849700 -0.249137 -0.464694
vn -0.986141 -0.052121 0.157510
vn -0.968308 0.205888 0.141388
vn -0.834523 0.156962 -0.528142
vn -0.028781 0.475012 0.879508
vn 0.453761 0.436358 0.776977
vn -0.647808 -0.091576 0.756280
vn -0.630429 0.216140 0.745549
vn -0.744730 0.313075 -0.589374
vn -0.943569 0.322647 0.074676
vn -0.585378 0.333110 0.739169
s 1
g pCube5 polySurface5
usemtl set3
f 93/155/85 94/156/86 103/157/87 104/158/88
f 87/159/89 88/160/90 90/161/91 89/162/92
f 108/163/93 109/164/94 92/165/95 91/166/96
f 91/167/96 92/168/95 86/169/97 85/170/98
f 86/171/97 92/165/95 109/164/94 110/172/99
f 97/173/100 98/174/101 106/175/102 107/176/103
f 85/170/98 86/169/97 94/177/86 93/178/85
f 86/171/97 110/172/99 103/157/87 94/156/86
f 88/160/90 87/159/89 96/179/104 95/180/105
f 106/175/102 98/174/101 101/181/106 105/182/107
f 91/167/96 85/170/98 98/183/101 97/184/100
f 87/159/89 89/162/92 100/185/108 99/186/109
f 108/187/93 91/188/96 97/173/100 107/176/103
f 85/170/98 93/178/85 101/189/106 98/183/101
f 93/190/85 104/191/88 105/182/107 101/181/106
f 96/179/104 87/159/89 99/186/109 102/192/110
f 104/158/88 103/157/87 95/193/105 96/194/104
f 105/182/107 104/191/88 96/195/104 102/196/110
f 99/197/109 106/175/102 105/182/107 102/196/110
f 107/176/103 106/175/102 99/197/109 100/198/108
f 89/199/92 108/187/93 107/176/103 100/198/108
f 89/200/92 90/201/91 109/164/94 108/163/93
f 110/172/99 109/164/94 90/201/91 88/202/90
f 103/157/87 110/172/99 88/202/90 95/193/105
g default
v -1.307474 0.002611 0.500000
v 0.500000 0.002611 0.500000
v -1.307474 0.874772 0.500000
v 0.747934 0.874772 -1.635711
v -0.500000 0.002611 -0.761653
v 0.747934 0.002611 -1.635711
v -0.500000 0.002612 2.078017
v 0.500000 0.002612 2.078017
v 0.500000 0.831126 1.669404
v -0.500000 0.831126 1.669404
v -1.307474 1.750330 -0.023311
v 0.500000 1.750330 -0.023311
v 0.747934 1.750330 -1.321383
v -0.500000 1.750330 -0.761658
v -0.500000 1.706684 1.146093
v 0.500000 1.706684 1.146093
v 2.382054 0.002613 -0.761653
v 2.382054 0.002613 0.500000
v 1.735492 0.860017 -0.761653
v 1.735492 0.860017 0.500000
v 1.763712 0.826721 1.669404
v 2.353835 0.002614 2.078017
v 1.169389 1.527946 -0.761658
v 1.169389 1.527946 -0.023311
v 1.197609 1.494650 1.146093
v -1.002511 0.874772 -1.567810
v -0.002511 0.874772 -1.838407
v -0.002511 0.002611 -1.838407
v -1.002511 0.002611 -1.567810
v -1.547615 0.002611 -0.844893
v -1.547615 0.874772 -0.844893
v -1.002511 1.750330 -1.567815
v -0.002511 1.750330 -1.838412
v -1.547615 1.750330 -0.844898
vt 0.843230 0.014592
vt 0.882878 0.029715
vt 0.868945 0.066363
vt 0.829724 0.051090
vt 0.231070 0.732858
vt 0.226611 0.624863
vt 0.303559 0.606851
vt 0.273193 0.682792
vt 0.675311 0.064274
vt 0.631741 0.068159
vt 0.628473 0.031462
vt 0.672052 0.027548
vt 0.265316 0.433375
vt 0.298884 0.488263
vt 0.209520 0.472215
vt 0.214258 0.396036
vt 0.977688 0.136674
vt 0.983912 0.189684
vt 0.938767 0.195272
vt 0.932432 0.142456
vt 0.710151 0.024049
vt 0.713363 0.060897
vt 0.143011 0.468079
vt 0.145633 0.425932
vt 0.928585 0.093975
vt 0.967605 0.069721
vt 0.159161 0.687502
vt 0.156691 0.627756
vt 0.770378 0.055591
vt 0.768002 0.018951
vt 0.901930 0.199440
vt 0.898232 0.168478
vt 0.678621 0.101130
vt 0.635032 0.104997
vt 0.716756 0.097780
vt 0.813588 0.091118
vt 0.752921 0.094706
vt 0.852995 0.106530
vt 0.894116 0.118809
vt 0.257762 0.554845
vt 0.204587 0.551538
vt 0.950823 0.260633
vt 0.916822 0.246522
vt 0.879768 0.074075
vt 0.895233 0.037587
vt 0.138152 0.546213
vt 0.884069 0.224821
vt 0.224369 0.582741
vt 0.268458 0.580392
vt 0.154407 0.584214
vt 0.863548 0.114395
vt 0.599045 0.071074
vt 0.595774 0.034381
vt 0.300611 0.414309
vt 0.309394 0.457165
vt 0.271570 0.389439
vt 0.336301 0.650414
vt 0.322599 0.710828
vt 0.596913 0.110308
vt 0.280750 0.745180
vn -0.304193 -0.827886 0.471245
vn 0.000195 -0.889422 0.457086
vn 0.013529 0.488655 0.872372
vn -0.539119 0.357527 0.762578
vn -0.579659 0.778584 0.240422
vn 0.099317 0.994770 0.023857
vn 0.360728 0.843837 -0.397260
vn 0.000000 1.000000 -0.000000
vn -0.540848 -0.000003 -0.841121
vn 0.006185 0.038521 -0.999239
vn -0.027301 -0.709881 -0.703792
vn -0.383602 -0.704945 -0.596575
vn 0.000000 -1.000000 0.000000
vn 0.216081 -0.884389 -0.413721
vn 0.000001 -1.000000 0.000000
vn -0.552309 -0.806284 0.211804
vn 0.460021 -0.887906 0.002113
vn 0.453635 -0.865942 -0.210620
vn 0.759241 0.477269 -0.442456
vn 0.785963 0.618270 0.002141
vn -0.739966 -0.663733 -0.109131
vn -0.987663 0.018334 -0.155520
vn 0.494579 0.668517 0.555407
vn 0.386391 -0.847507 0.363914
vn -0.320496 0.826043 0.463612
vn 0.080717 0.904962 0.417767
vn -0.897898 0.159045 0.410468
vn 0.667049 0.702771 -0.247303
vn 0.586651 0.809679 0.016117
vn -0.402204 0.668562 -0.625505
vn 0.035588 0.715342 -0.697868
vn -0.784895 0.605290 -0.132528
vn 0.456092 0.808861 0.371113
vn 0.505996 0.195001 -0.840204
s 1
g pCube5 polySurface4
usemtl set3
f 117/203/111 118/204/112 119/205/113 120/206/114
f 121/207/115 122/208/116 123/209/117 124/210/118
f 136/211/119 137/212/120 138/213/121 139/214/122
f 115/215/123 116/216/124 112/217/125 111/218/126
f 128/219/127 127/220/128 129/221/129 130/222/130
f 139/214/122 140/223/131 141/224/132 136/211/119
f 111/218/126 112/217/125 118/225/112 117/226/111
f 128/219/127 130/222/130 131/227/133 132/228/134
f 122/208/116 121/207/115 125/229/135 126/230/136
f 113/231/137 111/232/126 117/203/111 120/206/114
f 130/222/130 129/221/129 133/233/138 134/234/139
f 137/212/120 136/211/119 142/235/140 143/236/141
f 136/211/119 141/224/132 144/237/142 142/235/140
f 113/231/137 120/206/114 125/238/135 121/239/115
f 120/206/114 119/205/113 126/240/136 125/238/135
f 131/227/133 130/222/130 134/234/139 135/241/143
f 112/217/125 116/216/124 127/242/128 128/243/127
f 116/244/124 114/245/144 129/221/129 127/220/128
f 119/246/113 118/247/112 132/228/134 131/227/133
f 118/225/112 112/217/125 128/243/127 132/248/134
f 114/245/144 123/249/117 133/233/138 129/221/129
f 123/209/117 122/208/116 134/250/139 133/251/138
f 122/208/116 126/230/136 135/252/143 134/250/139
f 126/253/136 119/246/113 131/227/133 135/241/143
f 114/254/144 116/255/124 138/213/121 137/212/120
f 116/216/124 115/215/123 139/256/122 138/257/121
f 115/215/123 111/218/126 140/258/131 139/256/122
f 111/232/126 113/231/137 141/224/132 140/223/131
f 124/210/118 123/209/117 143/259/141 142/260/140
f 123/261/117 114/254/144 137/212/120 143/236/141
f 113/231/137 121/239/115 144/237/142 141/224/132
f 121/207/115 124/210/118 142/260/140 144/262/142
