# This file uses centimeters as units for non-parametric coordinates.

mtllib Rocks1.mtl
g default
v -5.414165 0.013455 0.500000
v -4.060453 0.013455 0.500000
v -5.414165 0.484765 0.500000
v -4.060453 0.484765 0.500000
v -5.060453 0.484765 -0.500000
v -4.531726 0.484765 -0.310754
v -5.060453 0.013455 -0.500000
v -4.531726 0.013455 -0.310754
v -5.060453 0.013455 0.982414
v -4.060453 0.013455 0.982414
v -4.060453 0.484765 0.982414
v -5.060453 0.484765 0.982414
v -4.673241 0.793690 0.500000
v -4.771066 0.524711 -0.396420
v -4.771066 0.020137 -0.396421
v -4.673241 0.013455 0.500000
v -4.513125 0.013455 0.982414
v -4.513125 0.524711 0.982414
v -4.513125 0.234188 0.982414
v -5.060453 0.216942 0.982414
v -5.414165 0.216942 0.500000
v -5.060453 0.216942 -0.500000
v -4.771066 0.239287 -0.396420
v -4.531726 0.216942 -0.310754
v -4.060453 0.216942 0.500000
v -4.060453 0.216942 0.982414
v -2.482475 0.010460 1.694931
v -2.311849 0.010460 1.694931
v -2.482475 0.198568 1.694931
v -2.311849 0.198568 1.694931
v -2.482475 0.198568 1.195532
v -2.311849 0.198568 1.195532
v -2.482475 0.010460 1.195532
v -2.311849 0.010460 1.195532
v -2.575202 0.233532 1.504609
v -2.219122 0.233532 1.504609
v -2.276885 0.233532 1.264054
v -2.517439 0.233532 1.264054
v -2.276885 0.010460 1.264054
v -2.219122 0.010460 1.504609
v -2.517439 0.010460 1.264054
v -2.575202 0.010460 1.504609
v -2.482475 0.108306 1.694931
v -2.575202 0.106278 1.504609
v -2.517439 0.106278 1.264054
v -2.482475 0.108306 1.195532
v -2.311849 0.108306 1.195532
v -2.276885 0.106278 1.264054
v -2.219122 0.106278 1.504609
v -2.311849 0.108306 1.694931
v 4.325111 0.009818 0.015692
v 9.908371 0.009818 0.015692
v 5.320948 5.273656 -0.980145
v 8.912535 5.273656 -0.980145
v 5.320948 5.273656 -2.641528
v 6.982332 5.273656 -2.641528
v 4.325111 0.009818 -3.637365
v 7.978168 0.009818 -3.637365
v 5.184267 0.009818 2.150472
v 8.837324 0.009818 2.150472
v 9.034861 2.078783 1.154635
v 6.180103 4.043572 1.154635
v 3.344833 0.009818 -3.637365
v 2.565680 0.009818 0.015692
v 3.561517 5.273656 -0.980145
v 4.340670 5.273656 -2.641528
v 4.203989 0.009818 2.150472
v 5.199825 4.043572 1.154635
v 4.753156 2.234287 1.601304
v 3.114848 2.912633 -0.533476
v 3.894001 2.912633 -3.088197
v 4.874279 2.912633 -3.088197
v 7.429001 2.912633 -3.088197
v 9.359204 2.912633 -0.533476
v 8.946259 1.150777 1.601304
v 5.733434 2.234287 1.601304
v -1.307474 0.002611 0.500000
v 0.500000 0.002611 0.500000
v -1.307474 0.874772 0.500000
v 0.747934 0.874772 -1.635711
v -0.500000 0.002611 -0.761653
v 0.747934 0.002611 -1.635711
v -0.500000 0.002612 2.078017
v 0.500000 0.002612 2.078017
v 0.500000 0.831126 1.669404
v -0.500000 0.831126 1.669404
v -1.307474 1.750330 -0.023311
v 0.500000 1.750330 -0.023311
v 0.747934 1.750330 -1.321383
v -0.500000 1.750330 -0.761658
v -0.500000 1.706684 1.146093
v 0.500000 1.706684 1.146093
v 2.382054 0.002613 -0.761653
v 2.382054 0.002613 0.500000
v 1.735492 0.860017 -0.761653
v 1.735492 0.860017 0.500000
v 1.763712 0.826721 1.669404
v 2.353835 0.002614 2.078017
v 1.169389 1.527946 -0.761658
v 1.169389 1.527946 -0.023311
v 1.197609 1.494650 1.146093
v -1.002511 0.874772 -1.567810
v -0.002511 0.874772 -1.838407
v -0.002511 0.002611 -1.838407
v -1.002511 0.002611 -1.567810
v -1.547615 0.002611 -0.844893
v -1.547615 0.874772 -0.844893
v -1.002511 1.750330 -1.567815
v -0.002511 1.750330 -1.838412
v -1.547615 1.750330 -0.844898
v -3.218888 0.000909 -4.154648
v 2.364372 0.000909 -4.154648
v -2.047160 9.173746 -5.309983
v 0.854823 9.173746 -5.309983
v -2.047160 9.173746 -6.652371
v -0.704770 9.173746 -6.652371
v -3.218888 0.000909 -7.807706
v 0.434169 0.000909 -7.807706
v -2.359732 0.000909 -2.019868
v 1.293325 0.000909 -2.019868
v -0.025543 8.440803 -3.450699
v -1.604091 8.173480 -3.450699
v -4.012010 0.000909 -7.346245
v -4.978319 0.000909 -4.154648
v -3.468768 9.173746 -5.309983
v -2.652061 9.173746 -6.190910
v -3.340010 0.000909 -2.019868
v -2.146139 8.122353 -3.450699
v 0.625969 4.271550 -2.743878
v -1.977373 4.136283 -2.743878
v -2.735904 4.110412 -2.743878
v -4.214477 4.642425 -4.739255
v -3.323866 4.642425 -6.761638
v -2.625986 4.642425 -7.223099
v -0.142141 4.642425 -7.223099
v 1.600530 4.642425 -4.739255
v -2.392479 0.198568 1.694931
v -2.387390 0.233532 1.504609
v -2.390561 0.233532 1.264054
v -2.392479 0.198568 1.195532
v -2.392479 0.108306 1.195532
v -2.392479 0.010460 1.195532
v -2.392479 0.010460 1.694931
v -2.392479 0.108306 1.694931
vt 0.086894 0.061649
vt 0.308320 0.021129
vt 0.308862 0.043036
vt 0.087000 0.041448
vt 0.146527 0.015172
vt 0.118847 0.828907
vt 0.520681 0.066646
vt 0.251830 0.015726
vt 0.251690 0.042315
vt 0.519980 0.038319
vt 0.282102 0.062014
vt 0.251584 0.062516
vt 0.056514 0.423964
vt 0.045758 0.356929
vt 0.065402 0.479407
vt 0.494196 0.016530
vt 0.494695 0.036726
vt 0.401624 0.039028
vt 0.146387 0.041761
vt 0.353746 0.040213
vt 0.353246 0.020017
vt 0.032825 0.010608
vt 0.087141 0.014859
vt 0.402282 0.065609
vt 0.495353 0.063306
vt 0.354403 0.066794
vt 0.032673 0.039450
vt 0.282216 0.040257
vt 0.251548 0.090439
vt 0.214360 0.195538
vt 0.320844 0.121375
vt 0.251617 0.118707
vt 0.190541 0.155033
vt 0.381647 0.158156
vt 0.453116 0.158862
vt 0.119069 0.155206
vt 0.096757 0.119082
vt 0.475697 0.122906
vt 0.475976 0.094639
vt 0.096689 0.090814
vt 0.382284 0.093713
vt 0.453753 0.094419
vt 0.453479 0.122100
vt 0.382010 0.121393
vt 0.118913 0.090760
vt 0.190385 0.090587
vt 0.190452 0.118269
vt 0.118980 0.118442
vt 0.251680 0.144784
vt 0.320587 0.147450
vt 0.114818 0.742434
vt 0.096820 0.145159
vt 0.980716 0.795323
vt 0.688437 0.583640
vt 0.708638 0.616696
vt 0.966508 0.874116
vt 0.559184 0.813990
vt 0.794437 0.737995
vt 0.871476 0.745196
vt 0.734595 0.969229
vt 0.952379 0.691387
vt 0.877078 0.670820
vt 0.885543 0.579661
vt 0.701779 0.787050
vt 0.760271 0.575299
vt 0.402934 0.602861
vt 0.779229 0.665051
vt 0.732895 0.775188
vt 0.357181 0.634365
vt 0.842023 0.870220
vt 0.751307 0.875651
vt 0.955113 0.938215
vt 0.724874 0.643779
vt 0.950216 0.781937
vt 0.935968 0.860763
vt 0.765784 0.957503
vt 0.827867 0.952093
vt 0.924576 0.924879
vt 0.843230 0.014592
vt 0.143011 0.468079
vt 0.879768 0.074075
vt 0.829724 0.051090
vt 0.231070 0.732858
vt 0.226611 0.624863
vt 0.596913 0.110308
vt 0.273193 0.682792
vt 0.675311 0.064274
vt 0.631741 0.068159
vt 0.309394 0.457165
vt 0.300611 0.414309
vt 0.265316 0.433375
vt 0.298884 0.488263
vt 0.209520 0.472215
vt 0.768002 0.018951
vt 0.977688 0.136674
vt 0.983912 0.189684
vt 0.938767 0.195272
vt 0.932432 0.142456
vt 0.710151 0.024049
vt 0.713363 0.060897
vt 0.928585 0.093975
vt 0.138152 0.546213
vt 0.813588 0.091118
vt 0.863548 0.114395
vt 0.770378 0.055591
vt 0.268458 0.580392
vt 0.224369 0.582741
vt 0.678621 0.101130
vt 0.635032 0.104997
vt 0.280750 0.745180
vt 0.894116 0.118809
vt 0.599045 0.071074
vt 0.841358 0.494504
vt 0.765530 0.513504
vt 0.760253 0.427224
vt 0.816597 0.415171
vt 0.289675 0.898707
vt 0.715213 0.327808
vt 0.675596 0.319315
vt 0.866726 0.276359
vt 0.611166 0.392576
vt 0.657577 0.408355
vt 0.638214 0.499317
vt 0.978145 0.422429
vt 0.718481 0.512608
vt 0.372679 0.315584
vt 0.716546 0.419077
vt 0.964356 0.434130
vt 0.327731 0.334416
vt 0.872246 0.383530
vt 0.908564 0.359364
vt 0.792169 0.337868
vt 0.755428 0.343030
vt 0.860252 0.490432
vt 0.831326 0.412487
vt 0.854973 0.285686
vt 0.835952 0.299776
vt 0.802826 0.336557
vt 0.141848 0.758328
vt 0.108895 0.953356
vt 0.136200 0.402106
vt 0.015189 0.445450
vt 0.474394 0.897590
vt 0.199207 0.899770
vt 0.316130 0.763947
vt 0.281532 0.762833
vt 0.417700 0.770835
vt 0.290408 0.984191
vt 0.251710 0.955183
vt 0.375753 0.983563
vt 0.417477 0.360924
vt 0.909001 0.469529
vt 0.392434 0.371416
vt 0.333577 0.222261
vt 0.318255 0.242539
vt 0.515311 0.255823
vt 0.510800 0.321823
vt 0.426900 0.183160
vt 0.852995 0.106530
vt 0.868945 0.066363
vt 0.916822 0.246522
vt 0.884069 0.224821
vt 0.156691 0.627756
vt 0.898232 0.168478
vt 0.154407 0.584214
vt 0.159161 0.687502
vt 0.752921 0.094706
vt 0.716756 0.097780
vt 0.322599 0.710828
vt 0.303559 0.606851
vt 0.336301 0.650414
vt 0.901930 0.199440
vt 0.895233 0.037587
vt 0.882878 0.029715
vt 0.145633 0.425932
vt 0.214258 0.396036
vt 0.271570 0.389439
vt 0.672052 0.027548
vt 0.595774 0.034381
vt 0.628473 0.031462
vt 0.950823 0.260633
vt 0.967605 0.069721
vt 0.204587 0.551538
vt 0.257762 0.554845
vt 0.142208 0.639237
vt 0.027297 0.642079
vt 0.055676 0.578891
vt 0.047857 0.719248
vt 0.125487 0.717329
vt 0.059754 0.743795
vt 0.475439 0.148981
vt 0.110740 0.577530
vt 0.199397 0.303770
vt 0.241282 0.246205
vt 0.321124 0.093108
vt 0.092986 0.325003
vt 0.118851 0.324573
vt 0.066064 0.274335
vt 0.080894 0.253141
vt 0.143213 0.198033
vt 0.084720 0.578173
vt 0.277680 0.144721
vt 0.087906 0.640580
vt 0.088802 0.718236
vt 0.498732 0.149211
vt 0.088797 0.743077
vt 0.498990 0.123136
vt 0.078786 0.298279
vt 0.499269 0.094869
vt 0.297831 0.092878
vt 0.227083 0.219481
vt 0.297551 0.121145
vt 0.297294 0.147220
vt 0.277617 0.118644
vt 0.277548 0.090376
vt 0.070821 0.145221
vt 0.070758 0.119145
vt 0.070689 0.090877
vt 0.309575 0.071870
vt 0.012771 0.831584
vt 0.061886 0.759982
vt 0.208854 0.825186
vt 0.205129 0.757923
vt 0.069697 0.969062
vt 0.282365 0.011921
vt 0.144001 0.942337
vt 0.032558 0.061363
vt 0.007246 0.395932
vt 0.146281 0.061962
vt 0.141366 0.374413
vt 0.519442 0.016569
vt 0.131920 0.425010
vt 0.401124 0.018833
vt 0.021756 0.486406
vt 0.633009 0.687279
vt 0.657260 0.854200
vt 0.720128 0.887450
vt 0.337522 0.507865
vt 0.587901 0.631375
vt 0.920322 0.758434
vt 0.668906 0.733369
vt 0.659392 0.814435
vt 0.563011 0.742619
vt 0.491791 0.810377
vt 0.493922 0.770612
vt 0.488177 0.877770
vt 0.551373 0.959682
vt 0.705214 0.986562
vt 0.463501 0.642990
vt 0.438010 0.660543
vt 0.859641 0.769572
vt 0.992539 0.609308
vt 0.312031 0.525418
vt 0.432518 0.442454
vt 0.548123 0.502887
vt 0.558496 0.577579
vt 0.811031 0.418998
vt 0.786955 0.341588
vt 0.835909 0.498289
vt 0.921314 0.348880
vt 0.570093 0.475953
vt 0.650525 0.310914
vn -0.202496 -0.899160 0.387953
vn 0.000000 -0.934483 0.356007
vn 0.000000 -0.000000 1.000000
vn -0.463336 0.000000 0.886183
vn -0.697388 0.716597 0.011817
vn -0.012574 0.999910 -0.004651
vn -0.041999 0.938168 -0.343623
vn -0.573373 0.717209 -0.396049
vn -0.808008 0.000000 -0.589172
vn 0.336991 0.000000 -0.941508
vn 0.047940 -0.990515 -0.128772
vn -0.329506 -0.911414 -0.246477
vn 0.000151 -0.999999 -0.001208
vn -0.462328 -0.886708 -0.001567
vn 0.463216 -0.869684 -0.170531
vn 0.301160 -0.921071 -0.246844
vn 0.781639 0.000000 -0.623731
vn 0.939553 -0.000000 -0.342404
vn -1.000000 0.000000 -0.000000
vn 0.716045 -0.000000 0.698054
vn 0.336897 -0.881995 0.329522
vn 0.042095 0.788324 0.613819
vn -0.371179 0.654084 0.659091
vn 0.716923 0.670438 -0.191141
vn 0.593461 0.668447 -0.448312
vn 0.554395 0.667807 0.496669
vn -0.316620 -0.897994 0.305546
vn 0.000000 -0.981342 0.192272
vn 0.000000 0.000000 1.000000
vn -0.736037 0.000000 0.676941
vn -0.691511 0.718711 0.072571
vn 0.000000 0.997160 0.075313
vn 0.000000 0.996521 -0.083348
vn -0.580082 0.787727 -0.207345
vn -0.504640 0.000000 -0.863330
vn 0.000000 0.000000 -1.000000
vn 0.000000 -0.981342 -0.192272
vn -0.122040 -0.966863 -0.224236
vn 0.721758 -0.689546 0.059932
vn 0.527685 -0.834508 -0.158572
vn 0.958810 0.000000 -0.284048
vn 0.997795 0.000000 0.066377
vn -0.527686 -0.834508 -0.158573
vn -0.721758 -0.689546 0.059933
vn -0.997795 0.000000 0.066377
vn -0.958810 0.000000 -0.284048
vn -0.473950 0.704149 0.528721
vn 0.000000 0.897741 0.440524
vn 0.000000 0.529393 -0.848377
vn -0.425848 0.424590 -0.798985
vn 0.342862 -0.885415 0.313823
vn 0.133652 -0.964654 -0.227113
vn 0.533386 0.000000 -0.845872
vn 0.752687 0.000000 0.658379
vn 0.456198 0.407519 -0.791083
vn 0.619891 0.754192 -0.216632
vn 0.729981 0.679745 0.071238
vn 0.508019 0.676227 0.533511
vn 0.017563 -0.850546 0.525608
vn 0.236707 -0.781533 0.577215
vn 0.487910 0.294368 0.821761
vn 0.066692 0.278930 0.957993
vn 0.095382 0.902183 0.420675
vn 0.639038 0.759261 0.123097
vn 0.346163 0.615058 -0.708432
vn 0.000000 0.728179 -0.685388
vn 0.000000 0.185887 -0.982571
vn 0.487320 0.186877 -0.852993
vn 0.347185 -0.768048 -0.538113
vn 0.000000 -0.871298 -0.490755
vn 0.575554 -0.804753 -0.145295
vn 0.000000 -1.000000 -0.000000
vn 0.907693 0.174547 -0.381611
vn -0.814204 -0.362068 -0.453848
vn -0.965858 -0.180347 0.185994
vn -0.952444 0.259457 0.159787
vn -0.817916 0.211246 -0.535153
vn 0.164966 0.638186 0.752001
vn 0.446137 0.471198 0.760877
vn -0.629657 -0.204495 0.749475
vn -0.584147 0.295133 0.756088
vn -0.640018 0.535139 -0.551365
vn -0.820948 0.548283 0.159469
vn -0.411646 0.532356 0.739693
vn -0.304193 -0.827886 0.471245
vn 0.000195 -0.889422 0.457086
vn 0.013529 0.488655 0.872372
vn -0.539119 0.357527 0.762578
vn -0.579659 0.778584 0.240422
vn 0.099317 0.994770 0.023857
vn 0.360728 0.843837 -0.397260
vn 0.000000 1.000000 -0.000000
vn -0.540848 -0.000003 -0.841121
vn 0.006185 0.038521 -0.999239
vn -0.027301 -0.709881 -0.703792
vn -0.383602 -0.704945 -0.596575
vn 0.000000 -1.000000 0.000000
vn 0.216081 -0.884389 -0.413721
vn 0.000001 -1.000000 0.000000
vn -0.552309 -0.806284 0.211804
vn 0.460021 -0.887906 0.002113
vn 0.453635 -0.865942 -0.210620
vn 0.759241 0.477269 -0.442456
vn 0.785963 0.618270 0.002141
vn -0.739966 -0.663733 -0.109131
vn -0.987663 0.018334 -0.155520
vn 0.494579 0.668517 0.555407
vn 0.386391 -0.847507 0.363914
vn -0.320496 0.826043 0.463612
vn 0.080717 0.904962 0.417767
vn -0.897898 0.159045 0.410468
vn 0.667049 0.702771 -0.247303
vn 0.586651 0.809679 0.016117
vn -0.402204 0.668562 -0.625505
vn 0.035588 0.715342 -0.697868
vn -0.784895 0.605290 -0.132528
vn 0.456092 0.808861 0.371113
vn 0.505996 0.195001 -0.840204
vn -0.002809 -0.585027 0.811009
vn 0.420617 -0.426365 0.800808
vn 0.468816 0.217039 0.856216
vn -0.007695 0.170394 0.985346
vn -0.027023 0.958664 0.283255
vn 0.888247 0.409315 -0.208515
vn 0.429172 0.340576 -0.836552
vn -0.152266 0.390805 -0.907792
vn -0.139345 0.142651 -0.979915
vn 0.500076 0.136065 -0.855226
vn 0.438266 -0.587401 -0.680355
vn -0.091433 -0.717176 -0.690868
vn 0.827594 -0.551845 -0.102742
vn 0.000000 -1.000000 -0.000000
vn 0.969407 0.178365 -0.168630
vn -0.849700 -0.249137 -0.464694
vn -0.986141 -0.052121 0.157510
vn -0.968308 0.205888 0.141388
vn -0.834523 0.156962 -0.528142
vn -0.028781 0.475012 0.879508
vn 0.453761 0.436358 0.776977
vn -0.647808 -0.091576 0.756280
vn -0.630429 0.216140 0.745549
vn -0.744730 0.313075 -0.589374
vn -0.943569 0.322647 0.074676
vn -0.585378 0.333110 0.739169
s 1
g pCube5
usemtl set1
f 9/1/1 17/227/2 19/27/3 20/4/4
f 3/220/5 13/6/6 14/140/7 5/224/8
f 22/9/9 23/28/10 15/11/11 7/12/12
f 7/230/12 15/141/11 16/13/13 1/14/14
f 2/233/15 8/16/16 24/17/17 25/18/18
f 7/12/12 1/229/14 21/19/19 22/9/9
f 1/14/14 16/13/13 17/142/2 9/228/1
f 2/233/15 25/18/18 26/20/20 10/21/21
f 18/139/22 13/6/6 3/220/5 12/221/23
f 21/19/19 1/229/14 9/1/1 20/4/4
f 13/6/6 4/222/24 6/226/25 14/140/7
f 15/231/11 23/10/10 24/17/17 8/16/16
f 16/13/13 15/141/11 8/232/16 2/15/15
f 17/142/2 16/13/13 2/15/15 10/234/21
f 26/20/20 19/3/3 17/2/2 10/21/21
f 4/222/24 13/6/6 18/139/22 11/223/26
f 20/4/4 19/27/3 18/22/22 12/23/23
f 3/5/5 21/19/19 20/4/4 12/23/23
f 22/9/9 21/19/19 3/5/5 5/8/8
f 5/8/8 14/225/7 23/28/10 22/9/9
f 24/17/17 23/10/10 14/7/7 6/25/25
f 25/18/18 24/17/17 6/25/25 4/24/24
f 26/20/20 25/18/18 4/24/24 11/26/26
f 18/219/22 19/3/3 26/20/20 11/26/26
s 3
f 27/29/27 143/215/28 144/214/29 43/32/30
f 35/186/31 138/203/32 139/204/33 38/188/34
f 46/37/35 141/217/36 142/218/37 33/40/38
f 33/196/38 142/208/37 143/211/28 27/194/27
f 40/41/39 39/42/40 48/43/41 49/44/42
f 41/45/43 42/46/44 44/47/45 45/48/46
f 29/187/47 137/201/48 138/203/32 35/186/31
f 140/206/49 31/190/50 38/188/34 139/204/33
f 28/30/51 34/198/52 39/199/40 40/200/39
f 34/39/52 47/38/53 48/43/41 39/42/40
f 50/31/54 28/195/51 40/41/39 49/44/42
f 33/196/38 27/194/27 42/193/44 41/197/43
f 27/29/27 43/32/30 44/47/45 42/46/44
f 46/37/35 33/40/38 41/45/43 45/48/46
f 43/32/30 29/49/47 35/33/31 44/47/45
f 45/48/46 44/47/45 35/33/31 38/36/34
f 31/52/50 46/37/35 45/48/46 38/36/34
f 31/52/50 140/216/49 141/217/36 46/37/35
f 48/43/41 47/38/53 32/191/55 37/35/56
f 49/44/42 48/43/41 37/35/56 36/34/57
f 30/50/58 50/31/54 49/44/42 36/34/57
f 43/32/30 144/214/29 137/202/48 29/49/47
s 7
f 59/239/59 60/54/60 75/55/61 76/235/62
f 53/57/63 54/247/64 56/246/65 55/244/66
f 72/61/67 73/62/68 58/63/69 57/252/70
f 57/238/70 58/254/69 52/255/71 51/66/72
f 52/65/71 58/63/69 73/62/68 74/67/73
f 63/68/74 64/251/75 70/70/76 71/71/77
f 51/66/72 52/255/71 60/256/60 59/249/59
f 52/65/71 74/67/73 75/55/61 60/54/60
f 54/247/64 53/57/63 62/236/78 61/248/79
f 70/70/76 64/251/75 67/74/80 69/75/81
f 57/238/70 51/66/72 64/69/75 63/253/74
f 53/57/63 55/244/66 66/245/82 65/243/83
f 72/237/67 57/64/70 63/68/74 71/71/77
f 51/66/72 59/249/59 67/250/80 64/69/75
f 59/53/59 76/56/62 69/75/81 67/74/80
f 62/236/78 53/57/63 65/243/83 68/242/84
f 65/77/83 70/70/76 69/75/81 68/78/84
f 71/71/77 70/70/76 65/77/83 66/76/82
f 55/60/66 72/237/67 71/71/77 66/76/82
f 55/240/66 56/59/65 73/62/68 72/61/67
f 74/67/73 73/62/68 56/59/65 54/58/64
f 75/55/61 74/67/73 54/58/64 61/73/79
f 76/235/62 75/55/61 61/73/79 62/241/78
f 69/75/81 76/56/62 62/72/78 68/78/84
s 9
f 83/79/85 84/174/86 85/160/87 86/82/88
f 87/83/89 88/84/90 89/170/91 90/86/92
f 102/87/93 103/88/94 104/180/95 105/178/96
f 81/91/97 82/92/98 78/93/99 77/176/100
f 94/95/101 93/96/102 95/97/103 96/98/104
f 105/178/96 106/99/105 107/100/106 102/87/93
f 77/176/100 78/93/99 84/80/86 83/175/85
f 94/95/101 96/98/104 97/101/107 98/182/108
f 88/84/90 87/83/89 91/166/109 92/163/110
f 79/105/111 77/94/100 83/79/85 86/82/88
f 96/98/104 95/97/103 99/172/112 100/164/113
f 103/88/94 102/87/93 108/108/114 109/109/115
f 102/87/93 107/100/106 110/168/116 108/108/114
f 79/105/111 86/82/88 91/103/109 87/167/89
f 86/82/88 85/160/87 92/159/110 91/103/109
f 97/101/107 96/98/104 100/164/113 101/111/117
f 78/93/99 82/92/98 93/184/102 94/183/101
f 82/181/98 80/161/118 95/97/103 93/96/102
f 85/81/87 84/173/86 98/182/108 97/101/107
f 84/80/86 78/93/99 94/183/101 98/102/108
f 80/161/118 89/162/91 99/172/112 95/97/103
f 89/170/91 88/84/90 100/107/113 99/106/112
f 88/84/90 92/163/110 101/165/117 100/107/113
f 92/104/110 85/81/87 97/101/107 101/111/117
f 80/112/118 82/179/98 104/180/95 103/88/94
f 82/92/98 81/91/97 105/90/96 104/89/95
f 81/91/97 77/176/100 106/177/105 105/90/96
f 77/94/100 79/105/111 107/100/106 106/99/105
f 90/86/92 89/170/91 109/171/115 108/169/114
f 89/85/91 80/112/118 103/88/94 109/109/115
f 79/105/111 87/167/89 110/168/116 107/100/106
f 87/83/89 90/86/92 108/169/114 110/110/116
s 12
f 119/259/119 120/114/120 129/115/121 130/257/122
f 113/117/123 114/143/124 116/150/125 115/148/126
f 134/121/127 135/122/128 118/123/129 117/261/130
f 117/154/130 118/158/129 112/156/131 111/126/132
f 112/125/131 118/123/129 135/122/128 136/127/133
f 123/128/134 124/152/135 132/130/136 133/131/137
f 111/126/132 112/156/131 120/157/120 119/151/119
f 112/125/131 136/127/133 129/115/121 120/114/120
f 114/143/124 113/117/123 122/145/138 121/147/139
f 132/130/136 124/152/135 127/134/140 131/135/141
f 117/154/130 111/126/132 124/129/135 123/155/134
f 113/117/123 115/148/126 126/149/142 125/144/143
f 134/260/127 117/124/130 123/128/134 133/131/137
f 111/126/132 119/151/119 127/153/140 124/129/135
f 119/113/119 130/116/122 131/135/141 127/134/140
f 122/145/138 113/117/123 125/144/143 128/146/144
f 130/257/122 129/115/121 121/133/139 122/258/138
f 131/135/141 130/116/122 122/132/138 128/138/144
f 125/137/143 132/130/136 131/135/141 128/138/144
f 133/131/137 132/130/136 125/137/143 126/136/142
f 115/120/126 134/260/127 133/131/137 126/136/142
f 115/262/126 116/119/125 135/122/128 134/121/127
f 136/127/133 135/122/128 116/119/125 114/118/124
f 129/115/121 136/127/133 114/118/124 121/133/139
s 3
f 137/201/48 30/192/58 36/185/57 138/203/32
f 139/204/33 138/203/32 36/185/57 37/189/56
f 32/51/55 140/206/49 139/204/33 37/189/56
f 141/207/36 140/205/49 32/191/55 47/38/53
f 142/209/37 141/207/36 47/38/53 34/39/52
f 143/211/28 142/208/37 34/198/52 28/30/51
f 144/212/29 143/210/28 28/195/51 50/31/54
f 137/213/48 144/212/29 50/31/54 30/50/58
